# xmcd
#
# Track frame offsets:
#	150
#	11860
#	23137
#	36255
#	46342
#	57175
#	69352
#	81935
#	91920
#	103955
#	115520
#	125217
#	135727
#	147217
#	161285
#	174955
#	185577
#	196000
#	207520
#	219650
#	230892
#	239140
#	249297
#	258860
#	267660
#	276397
#
# Disc length: 3812 seconds
#
# Revision: 1
# Processed by: cddbd v1.5.2PL0 Copyright (c) Steve Scherf et al.
# Submitted via: audiograbber 1.83.01
#
DISCID=860ee21a
DTITLE=Bonnie Owens - Queen Of The Coast [CD 1)
DYEAR=2007
DGENRE=Country
TTITLE0=A Dear John Letter (m. Fuzzy Owens)
TTITLE1=Wonderful World (m. Fuzzy Owens)
TTITLE2=I Traded My Heart For His Gold
TTITLE3=Take Me
TTITLE4=Just A Love For Someone To Steal
TTITLE5=No Tomorrow (m. Fuzzy Owens)
TTITLE6=Father (Kern Country Sweethearts)
TTITLE7=Please Don't Take Him From Me (Kern Country Sweethearts)
TTITLE8=That Little Boy Of Mine
TTITLE9=Wait A Little Longer, Please Jesus
TTITLE10=Looking Back To See (m. Fuzzy Owens)
TTITLE11=Just For The Children's Sake
TTITLE12=This Other
TTITLE13=Missing On A Mountain (m. Tommy Dee)
TTITLE14=Why Don't Daddy Live Here Anymore
TTITLE15=Waggin' Tongues
TTITLE16=Stop The World (And Let Me Off)
TTITLE17=Don't Take Advantage Of Me
TTITLE18=Lie A Little
TTITLE19=I'll Try Again Tomorrow
TTITLE20=The Longer You Wait
TTITLE21=You Don't Have Far To Go
TTITLE22=Number One Heel
TTITLE23=Beggin' To You
TTITLE24=I Want To Be A Cowboy's Sweetheart
TTITLE25=Pins And Needles
EXTD=
EXTT0=
EXTT1=
EXTT2=
EXTT3=
EXTT4=
EXTT5=
EXTT6=
EXTT7=
EXTT8=
EXTT9=
EXTT10=
EXTT11=
EXTT12=
EXTT13=
EXTT14=
EXTT15=
EXTT16=
EXTT17=
EXTT18=
EXTT19=
EXTT20=
EXTT21=
EXTT22=
EXTT23=
EXTT24=
EXTT25=
PLAYORDER=
